<mxfile host="65bd71144e">
    <diagram id="zLYguGbyNgnm57YuK-vs" name="第 1 页">
        <mxGraphModel dx="991" dy="1626" grid="1" gridSize="10" guides="1" tooltips="1" connect="1" arrows="1" fold="1" page="1" pageScale="1" pageWidth="827" pageHeight="1169" math="0" shadow="0">
            <root>
                <mxCell id="0"/>
                <mxCell id="1" parent="0"/>
                <mxCell id="2" value="" style="shape=partialRectangle;whiteSpace=wrap;html=1;bottom=1;right=1;left=1;top=0;fillColor=none;routingCenterX=-0.5;" parent="1" vertex="1">
                    <mxGeometry x="130" y="120" width="110" height="290" as="geometry"/>
                </mxCell>
                <mxCell id="3" value="&lt;font style=&quot;font-size: 36px&quot;&gt;&lt;br&gt;&lt;br&gt;b&lt;br&gt;a&lt;br&gt;&lt;/font&gt;" style="text;html=1;resizable=0;autosize=1;align=center;verticalAlign=middle;points=[];fillColor=none;strokeColor=none;rounded=0;" parent="1" vertex="1">
                    <mxGeometry x="165" y="215" width="40" height="90" as="geometry"/>
                </mxCell>
                <mxCell id="4" value="abbaca" style="text;strokeColor=none;fillColor=none;html=1;fontSize=24;fontStyle=1;verticalAlign=middle;align=center;" parent="1" vertex="1">
                    <mxGeometry x="570" y="150" width="100" height="40" as="geometry"/>
                </mxCell>
                <mxCell id="5" value="&lt;div style=&quot;text-align: left&quot;&gt;&lt;span&gt;&lt;font style=&quot;font-size: 18px&quot;&gt;每次出栈都进行一次判断&lt;/font&gt;&lt;/span&gt;&lt;/div&gt;&lt;div style=&quot;text-align: left&quot;&gt;&lt;span&gt;&lt;font size=&quot;3&quot;&gt;如果遇到str[str.length-1]===strStack.pop&lt;/font&gt;&lt;/span&gt;&lt;/div&gt;&lt;div style=&quot;text-align: left&quot;&gt;&lt;span&gt;&lt;font size=&quot;3&quot;&gt;先将pop的加入到str中，&lt;/font&gt;&lt;/span&gt;&lt;/div&gt;&lt;div style=&quot;text-align: left&quot;&gt;&lt;span style=&quot;font-size: medium&quot;&gt;然后截取str的最后两个字符，返回成为新的字符串&lt;/span&gt;&lt;/div&gt;" style="text;strokeColor=none;fillColor=none;html=1;fontSize=24;fontStyle=1;verticalAlign=middle;align=center;" parent="1" vertex="1">
                    <mxGeometry x="500" y="190" width="320" height="150" as="geometry"/>
                </mxCell>
                <mxCell id="6" value="" style="shape=partialRectangle;whiteSpace=wrap;html=1;bottom=1;right=1;left=1;top=0;fillColor=none;routingCenterX=-0.5;" parent="1" vertex="1">
                    <mxGeometry x="290" y="120" width="110" height="290" as="geometry"/>
                </mxCell>
                <mxCell id="8" value="&lt;div style=&quot;color: rgb(171, 178, 191); background-color: rgb(40, 44, 52); font-family: consolas, &amp;quot;courier new&amp;quot;, monospace; font-size: 17px; line-height: 23px;&quot;&gt;&lt;div&gt;&lt;span style=&quot;color: #e5c07b&quot;&gt;reverseStack&lt;/span&gt;&lt;/div&gt;&lt;/div&gt;" style="text;whiteSpace=wrap;html=1;fontSize=18;" parent="1" vertex="1">
                    <mxGeometry x="130" y="420" width="140" height="40" as="geometry"/>
                </mxCell>
                <mxCell id="9" value="&lt;div style=&quot;color: rgb(171, 178, 191); background-color: rgb(40, 44, 52); font-family: consolas, &amp;quot;courier new&amp;quot;, monospace; font-size: 17px; line-height: 23px;&quot;&gt;&lt;div&gt;&lt;span style=&quot;color: #e5c07b&quot;&gt;rightStack&lt;/span&gt;&lt;/div&gt;&lt;/div&gt;" style="text;whiteSpace=wrap;html=1;fontSize=18;" parent="1" vertex="1">
                    <mxGeometry x="294" y="420" width="120" height="40" as="geometry"/>
                </mxCell>
                <mxCell id="10" value="a" style="text;html=1;resizable=0;autosize=1;align=center;verticalAlign=middle;points=[];fillColor=none;strokeColor=none;rounded=0;fontSize=18;" parent="1" vertex="1">
                    <mxGeometry x="330" y="360" width="30" height="30" as="geometry"/>
                </mxCell>
                <mxCell id="11" value="c" style="text;html=1;resizable=0;autosize=1;align=center;verticalAlign=middle;points=[];fillColor=none;strokeColor=none;rounded=0;fontSize=18;" parent="1" vertex="1">
                    <mxGeometry x="335" y="320" width="20" height="30" as="geometry"/>
                </mxCell>
                <mxCell id="12" value="a" style="text;html=1;resizable=0;autosize=1;align=center;verticalAlign=middle;points=[];fillColor=none;strokeColor=none;rounded=0;fontSize=18;" parent="1" vertex="1">
                    <mxGeometry x="330" y="275" width="30" height="30" as="geometry"/>
                </mxCell>
                <mxCell id="13" value="&lt;span style=&quot;font-size: 36px&quot;&gt;b&lt;br&gt;&lt;/span&gt;" style="text;html=1;resizable=0;autosize=1;align=center;verticalAlign=middle;points=[];fillColor=none;strokeColor=none;rounded=0;fontSize=18;" parent="1" vertex="1">
                    <mxGeometry x="325" y="230" width="40" height="30" as="geometry"/>
                </mxCell>
                <mxCell id="14" value="" style="shape=partialRectangle;whiteSpace=wrap;html=1;bottom=1;right=1;left=1;top=0;fillColor=none;routingCenterX=-0.5;" vertex="1" parent="1">
                    <mxGeometry x="130" y="-230" width="110" height="290" as="geometry"/>
                </mxCell>
                <mxCell id="15" value="abbaca" style="text;strokeColor=none;fillColor=none;html=1;fontSize=24;fontStyle=1;verticalAlign=middle;align=center;" vertex="1" parent="1">
                    <mxGeometry x="460" y="-130" width="100" height="40" as="geometry"/>
                </mxCell>
                <mxCell id="16" value="&lt;font style=&quot;font-size: 24px&quot;&gt;a&lt;/font&gt;" style="text;html=1;resizable=0;autosize=1;align=center;verticalAlign=middle;points=[];fillColor=none;strokeColor=none;rounded=0;" vertex="1" parent="1">
                    <mxGeometry x="170" y="-20" width="30" height="20" as="geometry"/>
                </mxCell>
            </root>
        </mxGraphModel>
    </diagram>
</mxfile>